<?xml version="1.0" encoding="utf-8"?>
<!-- Generator: Adobe Illustrator 23.0.1, SVG Export Plug-In . SVG Version: 6.00 Build 0)  -->
<svg fill="#082158" version="1.1" id="Layer_1" xmlns="http://www.w3.org/2000/svg" xmlns:xlink="http://www.w3.org/1999/xlink" x="0px" y="0px"
	 viewBox="0 0 54 58" style="enable-background:new 0 0 54 58;" xml:space="preserve">
<g>
	<path d="M51.88,0.86H13.25c-0.83,0-1.5,0.67-1.5,1.5v42.29H2.12c-0.83,0-1.5,0.67-1.5,1.5v3.59
		c0,4.08,3.32,7.4,7.4,7.4h38.56c3.74,0,6.79-3.04,6.79-6.79V2.36C53.38,1.53,52.7,0.86,51.88,0.86z M3.62,49.74v-2.09H39.8v2.7
		c0,1.4,0.43,2.7,1.16,3.79H8.02C5.6,54.14,3.62,52.17,3.62,49.74z M50.38,50.35c0,2.09-1.7,3.79-3.79,3.79s-3.79-1.7-3.79-3.79
		v-4.2c0-0.83-0.67-1.5-1.5-1.5H14.75V3.86h35.63V50.35z"/>
	<g>
		<g>
			<path d="M41.3,13.85H20.36c-0.83,0-1.5-0.67-1.5-1.5s0.67-1.5,1.5-1.5H41.3c0.83,0,1.5,0.67,1.5,1.5
				S42.13,13.85,41.3,13.85z"/>
		</g>
		<g>
			<path d="M41.3,34.69H20.36c-0.83,0-1.5-0.67-1.5-1.5s0.67-1.5,1.5-1.5H41.3c0.83,0,1.5,0.67,1.5,1.5
				S42.13,34.69,41.3,34.69z"/>
		</g>
		<g>
			<path d="M41.3,27.74H20.36c-0.83,0-1.5-0.67-1.5-1.5s0.67-1.5,1.5-1.5H41.3c0.83,0,1.5,0.67,1.5,1.5
				S42.13,27.74,41.3,27.74z"/>
		</g>
		<g>
			<path d="M34.59,20.8H20.36c-0.83,0-1.5-0.67-1.5-1.5s0.67-1.5,1.5-1.5h14.23c0.83,0,1.5,0.67,1.5,1.5
				S35.42,20.8,34.59,20.8z"/>
		</g>
	</g>
</g>
</svg>
